<?xml version="1.0" encoding="utf-8"?><svg version="1.1" id="Layer_1" xmlns="http://www.w3.org/2000/svg" xmlns:xlink="http://www.w3.org/1999/xlink" x="0px" y="0px" viewBox="0 0 115.28 122.88" style="enable-background:new 0 0 115.28 122.88" xml:space="preserve"><style type="text/css">.st0{fill-rule:evenodd;clip-rule:evenodd;}</style><g><path class="st0" d="M25.38,57h64.88V37.34H69.59c-2.17,0-5.19-1.17-6.62-2.6c-1.43-1.43-2.3-4.01-2.3-6.17V7.64l0,0H8.15 c-0.18,0-0.32,0.09-0.41,0.18C7.59,7.92,7.55,8.05,7.55,8.24v106.45c0,0.14,0.09,0.32,0.18,0.41c0.09,0.14,0.28,0.18,0.41,0.18 c22.78,0,58.09,0,81.51,0c0.18,0,0.17-0.09,0.27-0.18c0.14-0.09,0.33-0.28,0.33-0.41v-11.16H25.38c-4.14,0-7.56-3.4-7.56-7.56 V64.55C17.82,60.4,21.22,57,25.38,57L25.38,57z M30.44,93.03V67.59h13.1c2.43,0,4.29,0.21,5.57,0.63c1.29,0.41,2.32,1.19,3.11,2.32 c0.79,1.13,1.18,2.51,1.18,4.13c0,1.41-0.3,2.63-0.91,3.65c-0.6,1.03-1.43,1.86-2.49,2.5c-0.67,0.4-1.59,0.74-2.76,1.01 c0.94,0.31,1.62,0.62,2.04,0.94c0.28,0.21,0.7,0.66,1.26,1.34c0.54,0.68,0.91,1.21,1.1,1.58l3.82,7.35h-8.88l-4.2-7.76 c-0.53-1.01-1.01-1.66-1.42-1.96c-0.57-0.39-1.21-0.59-1.93-0.59h-0.69v10.31H30.44L30.44,93.03z M38.33,77.93h3.32 c0.36,0,1.05-0.12,2.08-0.35c0.52-0.1,0.95-0.37,1.27-0.8c0.33-0.43,0.5-0.92,0.5-1.48c0-0.82-0.26-1.46-0.78-1.9 c-0.52-0.44-1.5-0.66-2.94-0.66h-3.46V77.93L38.33,77.93z M55.36,67.59h23.92v6.29h-8.03v19.15h-7.85V73.88h-8.03V67.59 L55.36,67.59z M82.3,67.59h19.44v5.47H90.19v4.44h9.88v5.15h-9.88v10.38H82.3V67.59L82.3,67.59z M97.79,57h9.93 c4.16,0,7.56,3.41,7.56,7.56v31.42c0,4.15-3.41,7.56-7.56,7.56h-9.93v13.55c0,1.61-0.65,3.04-1.7,4.1c-1.06,1.06-2.49,1.7-4.1,1.7 c-29.44,0-56.59,0-86.18,0c-1.61,0-3.04-0.64-4.1-1.7c-1.06-1.06-1.7-2.49-1.7-4.1V5.85c0-1.61,0.65-3.04,1.7-4.1 c1.06-1.06,2.53-1.7,4.1-1.7h58.72C64.66,0,64.8,0,64.94,0c0.64,0,1.29,0.28,1.75,0.69h0.09c0.09,0.05,0.14,0.09,0.23,0.18 l29.99,30.36c0.51,0.51,0.88,1.2,0.88,1.98c0,0.23-0.05,0.41-0.09,0.65V57L97.79,57z M67.52,27.97V8.94l21.43,21.7H70.19 c-0.74,0-1.38-0.32-1.89-0.78C67.84,29.4,67.52,28.71,67.52,27.97L67.52,27.97z"/></g></svg>